<?xml version="1.0" encoding="utf-8"?>
<!-- Generator: Adobe Illustrator 16.0.0, SVG Export Plug-In . SVG Version: 6.00 Build 0)  -->
<!DOCTYPE svg PUBLIC "-//W3C//DTD SVG 1.1//EN" "http://www.w3.org/Graphics/SVG/1.1/DTD/svg11.dtd">
<svg version="1.1" id="Layer_1" xmlns="http://www.w3.org/2000/svg" xmlns:xlink="http://www.w3.org/1999/xlink" x="0px" y="0px"
	 width="560px" height="560px" viewBox="0 0 560 560" enable-background="new 0 0 560 560" xml:space="preserve">
<g>
	<path fill="none" stroke="#FFFFFF" stroke-width="15" stroke-miterlimit="10" d="M284.348,138.803c0,0,41.195,1.229,73.783-23.365
		c17.17-12.958,75.024-4.236,94.688,11.683c51.648,41.81,141.418,169.701,67.635,306.815c0,0-25.824,52.264-120.513-27.055
		c0,0-61.471-65.175-115.593-65.175"/>
	<path fill="none" stroke="#FFFFFF" stroke-width="15" stroke-miterlimit="10" d="M287.878,138.803c0,0-41.196,1.229-73.783-23.365
		c-17.17-12.958-75.025-4.236-94.688,11.683c-51.648,41.81-141.417,169.701-67.634,306.815c0,0,25.824,52.264,120.512-27.055
		c0,0,61.472-65.175,115.594-65.175"/>
	<polygon fill="#FFFFFF" points="139.241,240.869 139.241,208.282 174.288,208.282 174.288,240.869 206.261,240.869 
		206.261,272.629 172.751,272.629 172.751,305.43 139.241,305.43 139.241,272.629 105.424,272.629 105.424,240.869 	"/>
	<circle fill="#FFFFFF" cx="417.656" cy="219.349" r="22.135"/>
	<circle fill="#FFFFFF" cx="461.926" cy="263.619" r="22.135"/>
	<circle fill="#FFFFFF" cx="373.387" cy="263.619" r="22.134"/>
	<circle fill="#FFFFFF" cx="417.656" cy="305.43" r="22.135"/>
</g>
</svg>
