<?xml version="1.0" encoding="utf-8"?>
<!-- Generator: Adobe Illustrator 16.0.0, SVG Export Plug-In . SVG Version: 6.00 Build 0)  -->
<!DOCTYPE svg PUBLIC "-//W3C//DTD SVG 1.1//EN" "http://www.w3.org/Graphics/SVG/1.1/DTD/svg11.dtd">
<svg version="1.1" xmlns="http://www.w3.org/2000/svg" xmlns:xlink="http://www.w3.org/1999/xlink" x="0px" y="0px" width="560px"
	 height="560px" viewBox="0 0 560 560" enable-background="new 0 0 560 560" xml:space="preserve">
<g id="Layer_1">
	
		<ellipse transform="matrix(1 0.0092 -0.0092 1 3.2964 -3.2451)" fill="#fff" stroke="#fff" stroke-miterlimit="10" cx="354.307" cy="356.613" rx="22.446" ry="21.968"/>
	
		<rect x="279.067" y="204.681" transform="matrix(0.7762 -0.6305 0.6305 0.7762 -116.1627 254.9167)" fill="#fff" stroke="#fff" stroke-miterlimit="10" width="43.788" height="172.777"/>
</g>
<g id="Layer_2">
	<path fill="#fff" stroke="#fff" stroke-miterlimit="10" d="M200.367,66.856c-50.16,0-90.823,40.663-90.823,90.823
		s40.663,90.823,90.823,90.823s90.823-40.663,90.823-90.823S250.527,66.856,200.367,66.856z M200.367,229.918
		c-39.897,0-72.24-32.343-72.24-72.24c0-39.897,32.343-72.24,72.24-72.24c39.896,0,72.24,32.343,72.24,72.24
		C272.606,197.575,240.263,229.918,200.367,229.918z"/>
</g>
</svg>
